<svg width="100" height="100" viewBox="0 0 100 100" fill="none" xmlns="http://www.w3.org/2000/svg">
<path d="M25 3.125C25 2.2962 24.6708 1.50134 24.0847 0.915291C23.4987 0.32924 22.7038 0 21.875 0C21.0462 0 20.2513 0.32924 19.6653 0.915291C19.0792 1.50134 18.75 2.2962 18.75 3.125V6.25H12.5C9.18479 6.25 6.00537 7.56696 3.66117 9.91117C1.31696 12.2554 0 15.4348 0 18.75L0 25H100V18.75C100 15.4348 98.683 12.2554 96.3388 9.91117C93.9946 7.56696 90.8152 6.25 87.5 6.25H81.25V3.125C81.25 2.2962 80.9208 1.50134 80.3347 0.915291C79.7487 0.32924 78.9538 0 78.125 0C77.2962 0 76.5013 0.32924 75.9153 0.915291C75.3292 1.50134 75 2.2962 75 3.125V6.25H25V3.125ZM100 87.5V31.25H0V87.5C0 90.8152 1.31696 93.9946 3.66117 96.3388C6.00537 98.683 9.18479 100 12.5 100H87.5C90.8152 100 93.9946 98.683 96.3388 96.3388C98.683 93.9946 100 90.8152 100 87.5ZM67.8375 55.3375L49.0875 74.0875C48.7972 74.3785 48.4524 74.6094 48.0727 74.767C47.6931 74.9245 47.286 75.0056 46.875 75.0056C46.464 75.0056 46.0569 74.9245 45.6773 74.767C45.2976 74.6094 44.9528 74.3785 44.6625 74.0875L35.2875 64.7125C34.7007 64.1257 34.3711 63.3298 34.3711 62.5C34.3711 61.6702 34.7007 60.8743 35.2875 60.2875C35.8743 59.7007 36.6702 59.3711 37.5 59.3711C38.3298 59.3711 39.1257 59.7007 39.7125 60.2875L46.875 67.4563L63.4125 50.9125C63.9993 50.3257 64.7952 49.9961 65.625 49.9961C66.4548 49.9961 67.2507 50.3257 67.8375 50.9125C68.4243 51.4993 68.7539 52.2952 68.7539 53.125C68.7539 53.9548 68.4243 54.7507 67.8375 55.3375Z" fill="white"/>
</svg>
