<svg width="95" height="95" viewBox="0 0 95 95" fill="none" xmlns="http://www.w3.org/2000/svg">
<path d="M22.53 55.7049L40.285 73.4699L72.875 40.8799L55.11 23.1249L22.53 55.7049ZM93.52 31.3199L85.965 23.7599C84.0461 24.8084 81.8391 25.2072 79.6746 24.8965C77.5101 24.5857 75.5044 23.5823 73.9579 22.0363C72.4114 20.4904 71.4072 18.4851 71.0957 16.3207C70.7842 14.1563 71.1822 11.9492 72.23 10.0299L64.675 2.46989C63.7227 1.52579 62.436 0.996094 61.095 0.996094C59.754 0.996094 58.4673 1.52579 57.515 2.46989L2.465 57.5199C1.52091 58.4722 0.991211 59.7589 0.991211 61.0999C0.991211 62.4409 1.52091 63.7276 2.465 64.6799L10.025 72.2299C11.9449 71.1786 14.1539 70.7782 16.3206 71.0887C18.4874 71.3991 20.495 72.4037 22.0425 73.9518C23.59 75.4998 24.5938 77.5078 24.9035 79.6747C25.2132 81.8415 24.8119 84.0504 23.76 85.9699L31.32 93.5199C32.271 94.4664 33.5582 94.9978 34.9 94.9978C36.2418 94.9978 37.529 94.4664 38.48 93.5199L93.52 38.4799C94.4665 37.5288 94.9979 36.2417 94.9979 34.8999C94.9979 33.5581 94.4665 32.2709 93.52 31.3199ZM40.285 81.5949L14.405 55.7049L55.115 14.9999L80.995 40.8799L40.285 81.5949Z" fill="white"/>
</svg>
