<svg width="113" height="113" viewBox="0 0 113 113" fill="none" xmlns="http://www.w3.org/2000/svg">
<path d="M25.9423 65.6506L47.2483 86.9686L86.3563 47.8605L65.0383 26.5546L25.9423 65.6506ZM111.13 36.3885L102.064 27.3165C99.7615 28.5748 97.1132 29.0533 94.5158 28.6804C91.9184 28.3076 89.5116 27.1035 87.6557 25.2483C85.7999 23.3932 84.5949 20.9868 84.2211 18.3895C83.8473 15.7922 84.3249 13.1437 85.5823 10.8405L76.5163 1.76855C75.3735 0.635639 73.8294 0 72.2203 0C70.6111 0 69.067 0.635639 67.9243 1.76855L1.86425 67.8286C0.731342 68.9713 0.0957031 70.5154 0.0957031 72.1245C0.0957031 73.7337 0.731342 75.2778 1.86425 76.4206L10.9363 85.4806C13.2401 84.2191 15.8909 83.7386 18.491 84.1111C21.0911 84.4837 23.5003 85.6891 25.3573 87.5468C27.2142 89.4044 28.4189 91.8141 28.7904 94.4143C29.162 97.0145 28.6806 99.6651 27.4183 101.969L36.4903 111.029C37.6315 112.164 39.1761 112.802 40.7863 112.802C42.3964 112.802 43.941 112.164 45.0823 111.029L111.13 44.9805C112.266 43.8393 112.904 42.2947 112.904 40.6846C112.904 39.0744 112.266 37.5298 111.13 36.3885ZM47.2483 96.7186L16.1923 65.6506L65.0443 16.8046L96.1003 47.8605L47.2483 96.7186Z" fill="#1D1D1D"/>
</svg>
